<svg width="423" height="377" viewBox="0 0 423 377" fill="none" xmlns="http://www.w3.org/2000/svg">
<path d="M83.6138 276.702C93.0615 273.193 149.545 308.865 152.068 322.975C154.086 334.263 135.259 337.831 126.265 337.618C137.836 361.638 163.886 407.792 243.841 396.842C307.711 388.096 339.41 332.95 338.65 291.293C344.81 294.439 354.679 295.115 362.489 293.719C370.299 292.322 370.236 290.303 382.099 281.854C382.641 397.106 279.95 430.509 255.651 434.853C149.686 453.795 102.142 381.057 86.2836 348.703C77.4834 352.703 57.6177 361.592 51.1684 347.7C45.707 335.935 74.1661 280.211 83.6138 276.702ZM221.673 48.3838C240.009 20.0308 284.788 8.68305 290.516 12.674C296.245 16.6651 303.422 28.7554 286.362 73.598C272.714 109.472 228.804 125.68 223.075 121.689C217.392 117.73 253.556 67.7611 251.068 63.1903C226.832 95.942 222.379 108.44 208.903 135.925C289.948 125.449 340.846 181.994 356.164 211.575C364.958 207.774 383.598 202.324 387.812 210.933C393.078 221.693 364.218 275.332 354.788 278.69C345.358 282.047 297.909 250.408 295.592 237.449C293.739 227.081 311.134 224.64 320.063 224.715C308.893 202.751 265.575 162.572 202.315 173.881C139.137 185.175 112.224 243.48 109.297 270.751C103.222 267.936 89.1268 262.655 81.3511 264.045C73.5755 265.435 69.8576 268.328 68.9706 269.601C82.0849 165.283 181.362 140.848 192.703 138.821C193.304 134.701 148.378 96.5941 137.499 91.8511C155.843 110.304 182.318 127.481 176.097 130.087C173.436 133.906 142.098 130.51 123.733 117.715C104.638 104.411 92.3668 73.1708 93.4076 69.6413C94.4502 66.1117 118.17 58.5289 149.934 67.8956C175.346 75.3892 193.084 109.776 198.776 126.033C200.297 109.601 200.893 80.5177 221.673 48.3838Z" fill="url(#paint0_linear_44_1771)"/>
<defs>
<linearGradient id="paint0_linear_44_1771" x1="175.155" y1="31.3112" x2="247.552" y2="436.3" gradientUnits="userSpaceOnUse">
<stop stop-color="#047857"/>
<stop offset="1" stop-color="#2563EB"/>
</linearGradient>
</defs>
</svg>
